<svg width="27" height="26" viewBox="0 0 27 26" fill="none" xmlns="http://www.w3.org/2000/svg">
<path fill-rule="evenodd" clip-rule="evenodd" d="M22.5481 11.3975L20.6887 16.976C19.3776 20.9091 18.7221 22.8757 17.7608 23.4346C16.8463 23.9662 15.7168 23.9662 14.8023 23.4346C13.8411 22.8757 13.1855 20.9091 11.8745 16.976C11.664 16.3445 11.5587 16.0287 11.382 15.7647C11.2108 15.509 10.9911 15.2892 10.7353 15.118C10.4713 14.9413 10.1556 14.836 9.52403 14.6255C5.59084 13.3145 3.62425 12.6589 3.0654 11.6976C2.53376 10.7832 2.53376 9.65371 3.0654 8.73922C3.62425 7.77793 5.59084 7.1224 9.52403 5.81134L15.1025 3.95186C19.9757 2.32744 22.4123 1.51523 23.6986 2.80144C24.9848 4.08765 24.1726 6.52427 22.5481 11.3975ZM14.6328 11.8107C14.3173 11.4916 14.3201 10.9772 14.6392 10.6617L19.2006 6.15053C19.5197 5.83499 20.0341 5.83784 20.3496 6.15689C20.6652 6.47595 20.6623 6.99039 20.3433 7.30593L15.7819 11.817C15.4628 12.1326 14.9484 12.1297 14.6328 11.8107Z" fill="white"/>
</svg>
