<svg width="12" height="8" viewBox="0 0 12 8" fill="none" xmlns="http://www.w3.org/2000/svg">
<path fill-rule="evenodd" clip-rule="evenodd" d="M8.03773 1.0454C8.21975 1.2043 8.23848 1.48068 8.07958 1.6627L3.49624 6.9127C3.41316 7.00786 3.293 7.06247 3.16667 7.06247C3.04034 7.06247 2.92017 7.00786 2.83709 6.9127L1.00376 4.8127C0.844852 4.63068 0.863589 4.3543 1.04561 4.1954C1.22763 4.03649 1.504 4.05523 1.66291 4.23725L3.16667 5.95973L7.42042 1.08725C7.57933 0.905227 7.85571 0.886489 8.03773 1.0454Z" fill="#E9EAEB"/>
<path fill-rule="evenodd" clip-rule="evenodd" d="M10.9685 1.09465C11.1435 1.26129 11.1502 1.53822 10.9836 1.71319L5.98344 6.96319C5.89507 7.05597 5.77047 7.10535 5.64253 7.09829C5.51459 7.09124 5.39618 7.02845 5.31856 6.9265L5.0687 6.59838C4.92232 6.40614 4.9595 6.13164 5.15173 5.98526C5.31688 5.8595 5.54274 5.86922 5.69593 5.99633L10.35 1.10973C10.5166 0.934762 10.7935 0.928012 10.9685 1.09465Z" fill="#E9EAEB"/>
</svg>
